<?xml version="1.0" encoding="utf-8"?>
<!-- Generator: Adobe Illustrator 25.4.1, SVG Export Plug-In . SVG Version: 6.00 Build 0)  -->
<svg version="1.1" id="Layer_1" xmlns="http://www.w3.org/2000/svg" xmlns:xlink="http://www.w3.org/1999/xlink" x="0px" y="0px"
	 viewBox="0 0 45.8 50.2" style="enable-background:new 0 0 45.8 50.2;" xml:space="preserve">
<style type="text/css">
	.st0{fill:#26FE2E;}
	.st1{fill:#FFFFFF;}
</style>
<g>
	<path class="st0" d="M11.5,24.1h-1.1C4.6,24.1,0,19.4,0,13.7L0,2.2h11.5c5.7,0,10.4,4.6,10.4,10.4v1.1
		C21.9,19.4,17.2,24.1,11.5,24.1z"/>
	<path class="st1" d="M35.4,24.1h-1.1c-5.7,0-10.4-4.6-10.4-10.4V2.2h11.5c5.7,0,10.4,4.6,10.4,10.4v1.1
		C45.8,19.4,41.2,24.1,35.4,24.1z"/>
	<path class="st1" d="M11.5,48h-1.1C4.6,48,0,43.4,0,37.7l0-11.5h11.5c5.7,0,10.4,4.6,10.4,10.4v1.1C21.9,43.4,17.2,48,11.5,48z"/>
	<path class="st1" d="M35.4,48h-1.1c-5.7,0-10.4-4.6-10.4-10.4V26.2h11.5c5.7,0,10.4,4.6,10.4,10.4v1.1C45.8,43.4,41.2,48,35.4,48z"
		/>
</g>
</svg>
