<?xml version="1.0" encoding="utf-8"?>
<!-- Generator: Adobe Illustrator 25.4.1, SVG Export Plug-In . SVG Version: 6.00 Build 0)  -->
<svg version="1.1" id="Layer_1" xmlns="http://www.w3.org/2000/svg" xmlns:xlink="http://www.w3.org/1999/xlink" x="0px" y="0px"
	 viewBox="0 0 55.2 53.2" style="enable-background:new 0 0 55.2 53.2;" xml:space="preserve">
<style type="text/css">
	.st0{fill:#FFFFFF;}
	.st1{fill:#26FE2E;}
</style>
<g>
	<path class="st0" d="M18.8,17.7C18.8,7.9,26.7,0,36.5,0s17.7,7.9,17.7,17.7H18.8z"/>
	<path class="st0" d="M36.5,17.7c9.8,0,17.7,7.9,17.7,17.7s-7.9,17.7-17.7,17.7V17.7z"/>
	<path class="st0" d="M36.5,35.4c0,9.8-7.9,17.7-17.7,17.7S1,45.2,1,35.4H36.5z"/>
	<path class="st0" d="M18.8,35.4C9,35.4,1,27.5,1,17.7C1,7.9,9,0,18.8,0L18.8,35.4z"/>
	<rect x="18.8" y="17.7" class="st1" width="17.7" height="17.7"/>
</g>
</svg>
