<?xml version="1.0" encoding="utf-8"?>
<!-- Generator: Adobe Illustrator 25.4.1, SVG Export Plug-In . SVG Version: 6.00 Build 0)  -->
<svg version="1.1" id="Layer_1" xmlns="http://www.w3.org/2000/svg" xmlns:xlink="http://www.w3.org/1999/xlink" x="0px" y="0px"
	 viewBox="0 0 51.9 59" style="enable-background:new 0 0 51.9 59;" xml:space="preserve">
<style type="text/css">
	.st0{fill:#FFFFFF;}
	.st1{fill:#26FE2E;}
</style>
<g>
	<path class="st0" d="M51.7,14.9c-0.6-2.7-2.3-4.4-4.7-5.5c-2.5-1.2-5.2-1.4-8-1.2c-3.8,0.3-7.4,1.4-10.9,3c-1.4,0.6-2.8,1.3-4.2,2
		c-0.2-0.4-0.4-0.8-0.7-1.3c-1.4-2.6-3.2-5-5.7-6.7c-2-1.3-4.1-2-6.5-1.5C8.4,4.4,6.7,6.2,5.7,8.7c-1,2.2-1.2,4.6-1.1,7
		c0.2,4.1,1.4,8,3.1,11.7c0.6,1.3,1.3,2.7,2,4c-0.2,0.1-0.5,0.3-0.7,0.4c-1,0.6-2.1,1.2-3,1.8c-1.9,1.3-3.6,2.9-4.8,5
		c-0.9,1.6-1.4,3.3-1.1,5.2c0.5,2.8,2.2,4.6,4.7,5.8c2.4,1.2,5,1.4,7.7,1.2c4.1-0.3,8-1.5,11.8-3.2c1.2-0.6,2.4-1.2,3.7-1.8
		c0.2,0.3,0.3,0.6,0.5,0.9c0.6,0.9,1.1,1.9,1.7,2.8c1.4,2.1,3.1,3.8,5.4,5c4,2,8.2,0.7,10.3-3.2c0.6-1.2,1-2.4,1.3-3.7
		c0.5-2.9,0.3-5.7-0.3-8.5c-0.8-3.7-2.2-7.1-4-10.4c-0.2-0.3-0.4-0.7-0.6-1c1-0.6,1.9-1.1,2.8-1.6c2.3-1.4,4.3-3.2,5.7-5.6
		C51.7,18.6,52.1,16.8,51.7,14.9z M7.9,39.3c-1.7-0.6-2.1-1.8-1.4-3.4c0.7-1.6,2-2.9,3.4-4.1c1.7,2.6,3.4,5.1,5.1,7.7
		C12.5,40,10.2,40.2,7.9,39.3z M15.5,14c0.1-0.9,0.3-1.9,0.6-2.8c0.6-1.5,1.7-1.9,3.1-1.3c1.7,0.7,3,2,4.2,3.5
		c-2.6,1.7-5.1,3.4-7.7,5.1C15.6,17,15.3,15.5,15.5,14z M17.7,38.6c2-1.8,3.9-3.7,5.2-6c-1.2-1.8-2.4-3.6-3.5-5.4
		c-1.1-1.8-2-3.8-2.6-5.9c1.8,2,3.7,3.8,6.1,5.2c3.5-2.6,7.2-4.9,11.4-6.3c-2.1,1.8-4,3.7-5.4,6.2c2.6,3.5,4.9,7.2,6.3,11.4
		c-1.8-2.1-3.7-4-6.2-5.4C25.5,35,21.9,37.3,17.7,38.6z M36,46.9c0,0.1-0.1,0.3-0.1,0.4c-0.7,2-2,2.5-3.8,1.6
		c-1.5-0.8-2.7-1.9-3.8-3.2c2.6-1.7,5.1-3.3,7.6-5c0,0,0.1,0.1,0.1,0.1C36.5,42.8,36.6,44.8,36,46.9z M45.7,22.3
		c-0.2,0.6-0.5,1.3-0.9,1.8c-0.7,0.9-1.5,1.8-2.3,2.6c-0.1,0.1-0.3,0.2-0.4,0.3c-1.7-2.5-3.3-5-5.1-7.6c2.4-0.5,4.7-0.6,7,0.2
		c0.3,0.1,0.5,0.2,0.7,0.4C45.6,20.6,46,21.3,45.7,22.3z"/>
	<path class="st1" d="M35.2,37.9c-1.8-2.1-3.7-4-6.2-5.4c-3.5,2.6-7.1,4.9-11.3,6.2c2-1.8,3.9-3.7,5.2-6c-1.2-1.8-2.4-3.6-3.5-5.4
		c-1.1-1.8-2-3.8-2.6-5.9c1.8,2,3.7,3.8,6.1,5.2c3.5-2.6,7.2-4.9,11.4-6.3c-2.1,1.8-4,3.7-5.4,6.2C31.5,30,33.8,33.6,35.2,37.9z"/>
</g>
</svg>
