<?xml version="1.0" encoding="utf-8"?>
<!-- Generator: Adobe Illustrator 25.4.1, SVG Export Plug-In . SVG Version: 6.00 Build 0)  -->
<svg version="1.1" id="Layer_1" xmlns="http://www.w3.org/2000/svg" xmlns:xlink="http://www.w3.org/1999/xlink" x="0px" y="0px"
	 viewBox="0 0 52.4 53.5" style="enable-background:new 0 0 52.4 53.5;" xml:space="preserve">
<style type="text/css">
	.st0{fill:#FFFFFF;}
	.st1{fill:#26FE2E;}
</style>
<g>
	<g>
		<path class="st0" d="M26.2,53.3c-0.1,0-0.2-0.1-0.3-0.1c-3-1.6-5.6-3.7-7.9-6.2c-1.2-1.3-2.2-2.6-3.1-4.1c-0.5-0.9-1-1.8-1.5-2.7
			c-0.1-0.2-0.3-0.4-0.5-0.5c-2.2-1.1-4.1-2.5-6-4.1c-2-1.7-3.7-3.7-5.1-5.9c-0.6-0.9-1-1.8-1.6-2.7c-0.1-0.2-0.1-0.4,0-0.6
			c1.1-2.2,2.5-4.2,4.2-6c1.7-1.9,3.6-3.6,5.7-5c0.9-0.6,1.9-1.1,2.8-1.7c0.2-0.1,0.4-0.3,0.5-0.5c1-2,2.2-3.8,3.6-5.5
			c0.9-1.1,1.9-2.1,2.9-3.1c1.1-1,2.3-1.9,3.5-2.8c0.8-0.6,1.7-1.1,2.6-1.6c0.2-0.1,0.4-0.1,0.6,0c1.9,1,3.6,2.2,5.3,3.6
			c1.9,1.7,3.6,3.5,5.1,5.6c0.8,1.2,1.6,2.5,2.3,3.8c0.1,0.2,0.3,0.3,0.4,0.4c2.7,1.4,5.1,3.1,7.3,5.2c1.1,1.1,2.1,2.2,3,3.5
			c1,1.3,1.8,2.7,2.6,4c0.1,0.2,0.1,0.4,0,0.6c-1,1.9-2.2,3.7-3.5,5.3c-1.3,1.6-2.8,3-4.4,4.3c-1.3,1.1-2.7,2.1-4.3,2.8
			c-0.7,0.4-1.1,0.9-1.4,1.6c-0.5,0.9-1,1.7-1.6,2.6c-1.4,2.1-3,3.9-4.8,5.5c-1.8,1.6-3.7,2.9-5.8,4C26.4,53.2,26.3,53.2,26.2,53.3z
			 M18.9,14.5c-0.1,0.1-0.2,0.3-0.3,0.4c-0.6,1.2-1.2,2.4-1.6,3.7c-0.6,1.6-1,3.3-1.2,5c-0.1,0.4,0,0.5,0.4,0.4c1.2,0,2.4,0,3.6-0.2
			c1.7-0.3,3.1-1.1,4.3-2.3c1.2-1.2,1.9-2.7,2.1-4.3c0-0.2,0.1-0.3,0.1-0.5c0.1,0,0.1,0,0.2,0c0,0.2,0.1,0.3,0.1,0.5
			c0.2,1.6,0.9,3,2,4.2c1.6,1.7,3.6,2.5,5.8,2.6c2.5,0.1,5,0,7.5,0c0.5,0,0.6,0,0.6,0.6c0,0.9,0,1.8,0,2.7c0,0.9-0.1,1.8-0.2,2.6
			c0,0.5-0.1,1.1-0.2,1.6c0.1,0,0.2-0.1,0.2-0.1c1.5-1.3,2.7-2.8,3.9-4.4c0.2-0.3,0.2-0.5,0-0.8c-0.4-0.5-0.8-1.1-1.3-1.6
			c-1.6-1.8-3.3-3.3-5.3-4.6c-1.9-1.2-3.9-2.2-6-2.9c-1-0.3-2-0.6-3-0.8c-1-0.2-1.9-0.3-2.9-0.4c-1.5-0.1-3,0-4.6,0.2
			c-0.7,0.1-1.4,0.3-2.1,0.4c-0.1,0-0.2,0-0.3-0.1c0-0.1,0-0.2,0-0.3c0.2-0.3,0.3-0.6,0.5-0.9c0.8-1.4,1.8-2.6,2.9-3.8
			c0.6-0.6,1.3-1,2.2-1c1.4,0,2.8,0.1,4.2,0.3c0.2,0,0.3,0,0.6,0c-0.1-0.2-0.2-0.3-0.3-0.4c-0.4-0.4-0.9-0.9-1.3-1.3
			c-0.9-0.8-1.9-1.6-2.9-2.4c-0.2-0.2-0.3-0.1-0.5,0c-0.6,0.5-1.2,0.9-1.8,1.4c-1.9,1.5-3.4,3.4-4.7,5.4
			C19.2,13.8,19,14.1,18.9,14.5C18.9,14.5,18.9,14.5,18.9,14.5z M10.5,21.9c-0.2,0.2-0.5,0.4-0.7,0.7c-1.3,1.2-2.4,2.5-3.4,3.9
			c-0.2,0.2-0.2,0.4,0,0.6c0.9,1.2,1.9,2.5,3,3.5c1,1,2.1,1.9,3.3,2.7c1.2,0.9,2.5,1.6,3.9,2.2c1.8,0.8,3.6,1.3,5.5,1.7
			c1.4,0.2,2.8,0.4,4.2,0.4c1.8,0,3.5-0.2,5.2-0.6c0.1,0,0.3,0,0.4,0c0,0.1,0,0.3-0.1,0.4c-0.3,0.6-0.7,1.2-1.1,1.7
			c-0.7,1.1-1.6,2.1-2.5,3c-0.4,0.5-1,0.8-1.6,0.8c-0.9,0-1.9,0-2.8-0.1c-0.8,0-1.5-0.2-2.3-0.3c0,0.1,0.1,0.1,0.1,0.2
			c0.9,0.9,1.8,1.8,2.7,2.7c0.5,0.5,1.1,0.9,1.7,1.3c0.2,0.2,0.4,0.2,0.6,0c0.2-0.2,0.4-0.3,0.6-0.5c1.7-1.2,3.2-2.7,4.4-4.3
			c1.4-1.8,2.6-3.9,3.5-6c0.8-2,1.3-4,1.6-6.1c0-0.2,0-0.3-0.3-0.3c-0.7,0-1.4,0-2.1,0c-1.5,0-2.9,0.3-4.1,1.1
			c-2.2,1.3-3.5,3.2-3.8,5.8c0,0.1-0.1,0.2-0.1,0.4c0,0-0.1,0-0.1,0c0-0.2-0.1-0.3-0.1-0.5c-0.1-0.8-0.3-1.6-0.7-2.3
			c-0.8-1.6-2-2.8-3.6-3.6c-1.1-0.6-2.3-0.8-3.5-0.9c-2.5-0.1-5.1,0-7.6,0c-0.6,0-0.6,0-0.6-0.6c0-1.5,0.1-3.1,0.1-4.6
			C10.3,23.5,10.4,22.7,10.5,21.9z"/>
		<path class="st0" d="M18.9,14.5L18.9,14.5L18.9,14.5z"/>
	</g>
	<path class="st1" d="M26.2,36.7L26.2,36.7c0-5.5,4.5-10,10-10v0c-5.5,0-10-4.5-10-10h0c0,5.5-4.5,10-10,10v0
		C21.7,26.8,26.2,31.2,26.2,36.7z"/>
</g>
</svg>
