<?xml version="1.0" encoding="utf-8"?>
<!-- Generator: Adobe Illustrator 25.4.1, SVG Export Plug-In . SVG Version: 6.00 Build 0)  -->
<svg version="1.1" id="Layer_1" xmlns="http://www.w3.org/2000/svg" xmlns:xlink="http://www.w3.org/1999/xlink" x="0px" y="0px"
	 viewBox="0 0 50 47.3" style="enable-background:new 0 0 50 47.3;" xml:space="preserve">
<style type="text/css">
	.st0{fill:#26FE2E;}
	.st1{fill:#FFFFFF;}
</style>
<g>
	<path class="st0" d="M13.3,23.6C19.5,23.9,25,29.1,25,35.4h0c0-6.3,5.6-11.4,11.8-11.7C30.6,23.3,25,18.2,25,11.9h0
		C24.9,18.2,19.5,23.3,13.3,23.6z"/>
	<path class="st1" d="M13.3,35.4V11.9H25c0,0,0,0,0-0.1C25,5.3,19.7,0,13.1,0C6.6,0,1.3,5.3,1.3,11.8c0,6.3,5,11.5,11.3,11.8
		C6.3,24,1.4,29.1,1.4,35.4c0,6.5,5.3,11.8,11.8,11.8S25,42,25,35.4c0,0,0,0,0-0.1H13.3z"/>
	<path class="st1" d="M37.4,23.6c6.2-0.3,11.2-5.5,11.2-11.8C48.6,5.3,43.3,0,36.8,0C30.3,0,25,5.3,25,11.8c0,0,0,0,0,0.1h11.8v23.5
		H25c0,0,0,0,0,0.1c0,6.5,5.3,11.8,11.8,11.8S48.7,42,48.7,35.4C48.7,29.1,43.7,23.9,37.4,23.6z"/>
</g>
</svg>
